<mxfile host="65bd71144e" modified="2021-02-02T09:10:31.869Z" agent="5.0 (Macintosh; Intel Mac OS X 11_0_0) AppleWebKit/537.36 (KHTML, like Gecko) Code/1.52.1 Chrome/83.0.4103.122 Electron/9.3.5 Safari/537.36" etag="y13AgU-og9SrLVveC06o" version="13.10.0" type="embed">
    <diagram id="72gmS7LdgW7Q2vTrnKVT" name="ページ1">
        <mxGraphModel dx="3118" dy="2320" grid="1" gridSize="10" guides="1" tooltips="1" connect="1" arrows="1" fold="1" page="1" pageScale="1" pageWidth="850" pageHeight="1100" math="0" shadow="0">
            <root>
                <mxCell id="0"/>
                <mxCell id="1" parent="0"/>
                <mxCell id="165" value="" style="whiteSpace=wrap;html=1;" parent="1" vertex="1">
                    <mxGeometry x="4060" y="200" width="240" height="190" as="geometry"/>
                </mxCell>
                <mxCell id="126" value="" style="whiteSpace=wrap;html=1;" parent="1" vertex="1">
                    <mxGeometry x="1800" y="220" width="1960" height="1640" as="geometry"/>
                </mxCell>
                <mxCell id="112" style="edgeStyle=orthogonalEdgeStyle;rounded=0;orthogonalLoop=1;jettySize=auto;html=1;entryX=0;entryY=0.5;entryDx=0;entryDy=0;" parent="1" source="99" target="102" edge="1">
                    <mxGeometry relative="1" as="geometry"/>
                </mxCell>
                <mxCell id="113" style="edgeStyle=orthogonalEdgeStyle;rounded=0;orthogonalLoop=1;jettySize=auto;html=1;entryX=-0.014;entryY=0.524;entryDx=0;entryDy=0;entryPerimeter=0;" parent="1" source="99" target="108" edge="1">
                    <mxGeometry relative="1" as="geometry"/>
                </mxCell>
                <mxCell id="114" style="edgeStyle=orthogonalEdgeStyle;rounded=0;orthogonalLoop=1;jettySize=auto;html=1;entryX=0.001;entryY=0.547;entryDx=0;entryDy=0;entryPerimeter=0;" parent="1" source="99" target="110" edge="1">
                    <mxGeometry relative="1" as="geometry"/>
                </mxCell>
                <mxCell id="99" value="&lt;font style=&quot;font-size: 24px&quot;&gt;user_id: 1&lt;br&gt;&lt;br&gt;name: たろう&lt;/font&gt;" style="whiteSpace=wrap;html=1;" parent="1" vertex="1">
                    <mxGeometry x="1950" y="953.75" width="180" height="225" as="geometry"/>
                </mxCell>
                <mxCell id="2" value="" style="rounded=0;whiteSpace=wrap;html=1;direction=south;" parent="1" vertex="1">
                    <mxGeometry x="-70" y="420" width="280" height="350" as="geometry"/>
                </mxCell>
                <mxCell id="3" value="" style="rounded=0;whiteSpace=wrap;html=1;direction=south;" parent="1" vertex="1">
                    <mxGeometry x="350" y="420" width="280" height="340" as="geometry"/>
                </mxCell>
                <mxCell id="4" value="" style="rounded=0;whiteSpace=wrap;html=1;direction=south;" parent="1" vertex="1">
                    <mxGeometry x="730" y="420" width="280" height="340" as="geometry"/>
                </mxCell>
                <mxCell id="5" value="&lt;font style=&quot;font-size: 18px&quot;&gt;&lt;b&gt;マイページ&lt;/b&gt;&lt;/font&gt;" style="text;html=1;strokeColor=none;fillColor=none;align=center;verticalAlign=middle;whiteSpace=wrap;rounded=0;" parent="1" vertex="1">
                    <mxGeometry y="430" width="110" height="20" as="geometry"/>
                </mxCell>
                <mxCell id="6" value="&lt;font style=&quot;font-size: 18px&quot;&gt;&lt;b&gt;ユーザー一覧&lt;/b&gt;&lt;/font&gt;" style="text;html=1;strokeColor=none;fillColor=none;align=center;verticalAlign=middle;whiteSpace=wrap;rounded=0;" parent="1" vertex="1">
                    <mxGeometry x="380" y="430" width="220" height="20" as="geometry"/>
                </mxCell>
                <mxCell id="7" value="&lt;span style=&quot;font-size: 18px&quot;&gt;&lt;b&gt;ユーザー詳細画面&lt;/b&gt;&lt;/span&gt;" style="text;html=1;strokeColor=none;fillColor=none;align=center;verticalAlign=middle;whiteSpace=wrap;rounded=0;" parent="1" vertex="1">
                    <mxGeometry x="760" y="440" width="220" height="20" as="geometry"/>
                </mxCell>
                <mxCell id="8" value="" style="rounded=0;whiteSpace=wrap;html=1;direction=south;" parent="1" vertex="1">
                    <mxGeometry x="1110" y="420" width="350" height="340" as="geometry"/>
                </mxCell>
                <mxCell id="9" value="&lt;span style=&quot;font-size: 18px&quot;&gt;&lt;b&gt;チャット画面&lt;/b&gt;&lt;/span&gt;" style="text;html=1;strokeColor=none;fillColor=none;align=center;verticalAlign=middle;whiteSpace=wrap;rounded=0;" parent="1" vertex="1">
                    <mxGeometry x="1150" y="440" width="220" height="20" as="geometry"/>
                </mxCell>
                <mxCell id="12" value="" style="rounded=1;whiteSpace=wrap;html=1;" parent="1" vertex="1">
                    <mxGeometry y="550" width="120" height="30" as="geometry"/>
                </mxCell>
                <mxCell id="11" value="&lt;span style=&quot;font-size: 14px&quot;&gt;ログアウト&lt;/span&gt;" style="text;html=1;strokeColor=none;fillColor=none;align=center;verticalAlign=middle;whiteSpace=wrap;rounded=0;" parent="1" vertex="1">
                    <mxGeometry y="550" width="120" height="30" as="geometry"/>
                </mxCell>
                <mxCell id="16" value="" style="rounded=1;whiteSpace=wrap;html=1;" parent="1" vertex="1">
                    <mxGeometry y="480" width="120" height="40" as="geometry"/>
                </mxCell>
                <mxCell id="41" style="edgeStyle=orthogonalEdgeStyle;rounded=0;orthogonalLoop=1;jettySize=auto;html=1;entryX=0.471;entryY=1;entryDx=0;entryDy=0;entryPerimeter=0;" parent="1" source="10" target="3" edge="1">
                    <mxGeometry relative="1" as="geometry"/>
                </mxCell>
                <mxCell id="42" style="edgeStyle=orthogonalEdgeStyle;rounded=0;orthogonalLoop=1;jettySize=auto;html=1;entryX=0.25;entryY=1;entryDx=0;entryDy=0;" parent="1" source="10" target="3" edge="1">
                    <mxGeometry relative="1" as="geometry">
                        <mxPoint x="320" y="520" as="targetPoint"/>
                    </mxGeometry>
                </mxCell>
                <mxCell id="43" style="edgeStyle=orthogonalEdgeStyle;rounded=0;orthogonalLoop=1;jettySize=auto;html=1;entryX=0.645;entryY=1.001;entryDx=0;entryDy=0;entryPerimeter=0;" parent="1" source="10" target="3" edge="1">
                    <mxGeometry relative="1" as="geometry"/>
                </mxCell>
                <mxCell id="44" style="edgeStyle=orthogonalEdgeStyle;rounded=0;orthogonalLoop=1;jettySize=auto;html=1;entryX=0.83;entryY=1.005;entryDx=0;entryDy=0;entryPerimeter=0;" parent="1" source="10" target="3" edge="1">
                    <mxGeometry relative="1" as="geometry">
                        <Array as="points">
                            <mxPoint x="235" y="500"/>
                            <mxPoint x="235" y="702"/>
                        </Array>
                    </mxGeometry>
                </mxCell>
                <mxCell id="10" value="&lt;font style=&quot;font-size: 14px&quot;&gt;ユーザー一覧へ&lt;/font&gt;" style="text;html=1;strokeColor=none;fillColor=none;align=center;verticalAlign=middle;whiteSpace=wrap;rounded=0;" parent="1" vertex="1">
                    <mxGeometry y="490" width="120" height="20" as="geometry"/>
                </mxCell>
                <mxCell id="29" style="edgeStyle=orthogonalEdgeStyle;rounded=0;orthogonalLoop=1;jettySize=auto;html=1;" parent="1" source="20" edge="1">
                    <mxGeometry relative="1" as="geometry">
                        <mxPoint x="710" y="510" as="targetPoint"/>
                    </mxGeometry>
                </mxCell>
                <mxCell id="20" value="" style="rounded=0;whiteSpace=wrap;html=1;" parent="1" vertex="1">
                    <mxGeometry x="410" y="490" width="150" height="40" as="geometry"/>
                </mxCell>
                <mxCell id="21" value="ユーザー" style="text;html=1;strokeColor=none;fillColor=none;align=center;verticalAlign=middle;whiteSpace=wrap;rounded=0;" parent="1" vertex="1">
                    <mxGeometry x="425" y="550" width="100" height="30" as="geometry"/>
                </mxCell>
                <mxCell id="85" style="edgeStyle=orthogonalEdgeStyle;rounded=0;orthogonalLoop=1;jettySize=auto;html=1;entryX=0.567;entryY=1.007;entryDx=0;entryDy=0;entryPerimeter=0;" parent="1" source="22" target="45" edge="1">
                    <mxGeometry relative="1" as="geometry">
                        <Array as="points">
                            <mxPoint x="680" y="575"/>
                            <mxPoint x="680" y="993"/>
                        </Array>
                    </mxGeometry>
                </mxCell>
                <mxCell id="22" value="" style="rounded=0;whiteSpace=wrap;html=1;" parent="1" vertex="1">
                    <mxGeometry x="410" y="555" width="150" height="40" as="geometry"/>
                </mxCell>
                <mxCell id="23" value="ユーザー1" style="text;html=1;strokeColor=none;fillColor=none;align=center;verticalAlign=middle;whiteSpace=wrap;rounded=0;" parent="1" vertex="1">
                    <mxGeometry x="435" y="500" width="100" height="30" as="geometry"/>
                </mxCell>
                <mxCell id="86" style="edgeStyle=orthogonalEdgeStyle;rounded=0;orthogonalLoop=1;jettySize=auto;html=1;entryX=0.559;entryY=1;entryDx=0;entryDy=0;entryPerimeter=0;" parent="1" source="24" target="58" edge="1">
                    <mxGeometry relative="1" as="geometry"/>
                </mxCell>
                <mxCell id="24" value="" style="rounded=0;whiteSpace=wrap;html=1;" parent="1" vertex="1">
                    <mxGeometry x="410" y="620" width="150" height="40" as="geometry"/>
                </mxCell>
                <mxCell id="25" value="ユーザー3" style="text;html=1;strokeColor=none;fillColor=none;align=center;verticalAlign=middle;whiteSpace=wrap;rounded=0;" parent="1" vertex="1">
                    <mxGeometry x="435" y="625" width="100" height="30" as="geometry"/>
                </mxCell>
                <mxCell id="87" style="edgeStyle=orthogonalEdgeStyle;rounded=0;orthogonalLoop=1;jettySize=auto;html=1;entryX=0.611;entryY=1.007;entryDx=0;entryDy=0;entryPerimeter=0;" parent="1" source="26" target="71" edge="1">
                    <mxGeometry relative="1" as="geometry">
                        <Array as="points">
                            <mxPoint x="630" y="700"/>
                            <mxPoint x="630" y="1868"/>
                        </Array>
                    </mxGeometry>
                </mxCell>
                <mxCell id="26" value="" style="rounded=0;whiteSpace=wrap;html=1;" parent="1" vertex="1">
                    <mxGeometry x="410" y="680" width="150" height="40" as="geometry"/>
                </mxCell>
                <mxCell id="27" value="ユーザー4" style="text;html=1;strokeColor=none;fillColor=none;align=center;verticalAlign=middle;whiteSpace=wrap;rounded=0;" parent="1" vertex="1">
                    <mxGeometry x="435" y="685" width="100" height="30" as="geometry"/>
                </mxCell>
                <mxCell id="28" value="ユーザー2" style="text;html=1;strokeColor=none;fillColor=none;align=center;verticalAlign=middle;whiteSpace=wrap;rounded=0;" parent="1" vertex="1">
                    <mxGeometry x="440" y="560" width="100" height="30" as="geometry"/>
                </mxCell>
                <mxCell id="30" value="" style="rounded=0;whiteSpace=wrap;html=1;" parent="1" vertex="1">
                    <mxGeometry x="790" y="520" width="150" height="40" as="geometry"/>
                </mxCell>
                <mxCell id="31" value="ユーザー" style="text;html=1;strokeColor=none;fillColor=none;align=center;verticalAlign=middle;whiteSpace=wrap;rounded=0;" parent="1" vertex="1">
                    <mxGeometry x="815" y="530" width="100" height="30" as="geometry"/>
                </mxCell>
                <mxCell id="33" style="edgeStyle=orthogonalEdgeStyle;rounded=0;orthogonalLoop=1;jettySize=auto;html=1;entryX=0.677;entryY=1.017;entryDx=0;entryDy=0;entryPerimeter=0;" parent="1" source="32" target="8" edge="1">
                    <mxGeometry relative="1" as="geometry"/>
                </mxCell>
                <mxCell id="32" value="&lt;font style=&quot;font-size: 14px&quot;&gt;チャットを始めるbtn&lt;/font&gt;" style="rounded=1;whiteSpace=wrap;html=1;" parent="1" vertex="1">
                    <mxGeometry x="805" y="625" width="120" height="50" as="geometry"/>
                </mxCell>
                <mxCell id="34" value="チャット内容のフォーム" style="rounded=0;whiteSpace=wrap;html=1;" parent="1" vertex="1">
                    <mxGeometry x="1170" y="495" width="180" height="35" as="geometry"/>
                </mxCell>
                <mxCell id="39" style="edgeStyle=orthogonalEdgeStyle;rounded=0;orthogonalLoop=1;jettySize=auto;html=1;entryX=0.5;entryY=0;entryDx=0;entryDy=0;" parent="1" source="36" target="38" edge="1">
                    <mxGeometry relative="1" as="geometry"/>
                </mxCell>
                <mxCell id="36" value="送信" style="rounded=1;whiteSpace=wrap;html=1;" parent="1" vertex="1">
                    <mxGeometry x="1360" y="490" width="60" height="40" as="geometry"/>
                </mxCell>
                <mxCell id="37" value="投稿者名" style="rounded=0;whiteSpace=wrap;html=1;" parent="1" vertex="1">
                    <mxGeometry x="1140" y="590" width="90" height="30" as="geometry"/>
                </mxCell>
                <mxCell id="38" value="内容" style="rounded=0;whiteSpace=wrap;html=1;" parent="1" vertex="1">
                    <mxGeometry x="1240" y="590" width="210" height="30" as="geometry"/>
                </mxCell>
                <mxCell id="45" value="" style="rounded=0;whiteSpace=wrap;html=1;direction=south;" parent="1" vertex="1">
                    <mxGeometry x="730" y="800" width="280" height="340" as="geometry"/>
                </mxCell>
                <mxCell id="46" value="&lt;span style=&quot;font-size: 18px&quot;&gt;&lt;b&gt;ユーザー詳細画面&lt;/b&gt;&lt;/span&gt;" style="text;html=1;strokeColor=none;fillColor=none;align=center;verticalAlign=middle;whiteSpace=wrap;rounded=0;" parent="1" vertex="1">
                    <mxGeometry x="760" y="820" width="220" height="20" as="geometry"/>
                </mxCell>
                <mxCell id="47" value="" style="rounded=0;whiteSpace=wrap;html=1;direction=south;" parent="1" vertex="1">
                    <mxGeometry x="1110" y="800" width="350" height="340" as="geometry"/>
                </mxCell>
                <mxCell id="48" value="&lt;span style=&quot;font-size: 18px&quot;&gt;&lt;b&gt;チャット画面&lt;/b&gt;&lt;/span&gt;" style="text;html=1;strokeColor=none;fillColor=none;align=center;verticalAlign=middle;whiteSpace=wrap;rounded=0;" parent="1" vertex="1">
                    <mxGeometry x="1150" y="820" width="220" height="20" as="geometry"/>
                </mxCell>
                <mxCell id="49" value="" style="rounded=0;whiteSpace=wrap;html=1;" parent="1" vertex="1">
                    <mxGeometry x="790" y="900" width="150" height="40" as="geometry"/>
                </mxCell>
                <mxCell id="50" value="ユーザー" style="text;html=1;strokeColor=none;fillColor=none;align=center;verticalAlign=middle;whiteSpace=wrap;rounded=0;" parent="1" vertex="1">
                    <mxGeometry x="815" y="910" width="100" height="30" as="geometry"/>
                </mxCell>
                <mxCell id="51" style="edgeStyle=orthogonalEdgeStyle;rounded=0;orthogonalLoop=1;jettySize=auto;html=1;entryX=0.677;entryY=1.017;entryDx=0;entryDy=0;entryPerimeter=0;" parent="1" source="52" target="47" edge="1">
                    <mxGeometry relative="1" as="geometry"/>
                </mxCell>
                <mxCell id="52" value="&lt;font style=&quot;font-size: 14px&quot;&gt;チャットを始めるbtn&lt;/font&gt;" style="rounded=1;whiteSpace=wrap;html=1;" parent="1" vertex="1">
                    <mxGeometry x="805" y="1005" width="120" height="50" as="geometry"/>
                </mxCell>
                <mxCell id="53" value="チャット内容のフォーム" style="rounded=0;whiteSpace=wrap;html=1;" parent="1" vertex="1">
                    <mxGeometry x="1170" y="875" width="180" height="35" as="geometry"/>
                </mxCell>
                <mxCell id="54" style="edgeStyle=orthogonalEdgeStyle;rounded=0;orthogonalLoop=1;jettySize=auto;html=1;entryX=0.5;entryY=0;entryDx=0;entryDy=0;" parent="1" source="55" target="57" edge="1">
                    <mxGeometry relative="1" as="geometry"/>
                </mxCell>
                <mxCell id="55" value="送信" style="rounded=1;whiteSpace=wrap;html=1;" parent="1" vertex="1">
                    <mxGeometry x="1360" y="870" width="60" height="40" as="geometry"/>
                </mxCell>
                <mxCell id="56" value="投稿者名" style="rounded=0;whiteSpace=wrap;html=1;" parent="1" vertex="1">
                    <mxGeometry x="1140" y="970" width="90" height="30" as="geometry"/>
                </mxCell>
                <mxCell id="57" value="内容" style="rounded=0;whiteSpace=wrap;html=1;" parent="1" vertex="1">
                    <mxGeometry x="1240" y="970" width="210" height="30" as="geometry"/>
                </mxCell>
                <mxCell id="58" value="" style="rounded=0;whiteSpace=wrap;html=1;direction=south;" parent="1" vertex="1">
                    <mxGeometry x="730" y="1240" width="280" height="340" as="geometry"/>
                </mxCell>
                <mxCell id="59" value="&lt;span style=&quot;font-size: 18px&quot;&gt;&lt;b&gt;ユーザー詳細画面&lt;/b&gt;&lt;/span&gt;" style="text;html=1;strokeColor=none;fillColor=none;align=center;verticalAlign=middle;whiteSpace=wrap;rounded=0;" parent="1" vertex="1">
                    <mxGeometry x="760" y="1260" width="220" height="20" as="geometry"/>
                </mxCell>
                <mxCell id="60" value="" style="rounded=0;whiteSpace=wrap;html=1;direction=south;" parent="1" vertex="1">
                    <mxGeometry x="1110" y="1240" width="350" height="340" as="geometry"/>
                </mxCell>
                <mxCell id="61" value="&lt;span style=&quot;font-size: 18px&quot;&gt;&lt;b&gt;チャット画面&lt;/b&gt;&lt;/span&gt;" style="text;html=1;strokeColor=none;fillColor=none;align=center;verticalAlign=middle;whiteSpace=wrap;rounded=0;" parent="1" vertex="1">
                    <mxGeometry x="1150" y="1260" width="220" height="20" as="geometry"/>
                </mxCell>
                <mxCell id="62" value="" style="rounded=0;whiteSpace=wrap;html=1;" parent="1" vertex="1">
                    <mxGeometry x="790" y="1340" width="150" height="40" as="geometry"/>
                </mxCell>
                <mxCell id="63" value="ユーザー" style="text;html=1;strokeColor=none;fillColor=none;align=center;verticalAlign=middle;whiteSpace=wrap;rounded=0;" parent="1" vertex="1">
                    <mxGeometry x="815" y="1350" width="100" height="30" as="geometry"/>
                </mxCell>
                <mxCell id="64" style="edgeStyle=orthogonalEdgeStyle;rounded=0;orthogonalLoop=1;jettySize=auto;html=1;entryX=0.677;entryY=1.017;entryDx=0;entryDy=0;entryPerimeter=0;" parent="1" source="65" target="60" edge="1">
                    <mxGeometry relative="1" as="geometry"/>
                </mxCell>
                <mxCell id="65" value="&lt;font style=&quot;font-size: 14px&quot;&gt;チャットを始めるbtn&lt;/font&gt;" style="rounded=1;whiteSpace=wrap;html=1;" parent="1" vertex="1">
                    <mxGeometry x="805" y="1445" width="120" height="50" as="geometry"/>
                </mxCell>
                <mxCell id="66" value="チャット内容のフォーム" style="rounded=0;whiteSpace=wrap;html=1;" parent="1" vertex="1">
                    <mxGeometry x="1170" y="1315" width="180" height="35" as="geometry"/>
                </mxCell>
                <mxCell id="67" style="edgeStyle=orthogonalEdgeStyle;rounded=0;orthogonalLoop=1;jettySize=auto;html=1;entryX=0.5;entryY=0;entryDx=0;entryDy=0;" parent="1" source="68" target="70" edge="1">
                    <mxGeometry relative="1" as="geometry"/>
                </mxCell>
                <mxCell id="68" value="送信" style="rounded=1;whiteSpace=wrap;html=1;" parent="1" vertex="1">
                    <mxGeometry x="1360" y="1310" width="60" height="40" as="geometry"/>
                </mxCell>
                <mxCell id="69" value="投稿者名" style="rounded=0;whiteSpace=wrap;html=1;" parent="1" vertex="1">
                    <mxGeometry x="1140" y="1410" width="90" height="30" as="geometry"/>
                </mxCell>
                <mxCell id="70" value="内容" style="rounded=0;whiteSpace=wrap;html=1;" parent="1" vertex="1">
                    <mxGeometry x="1240" y="1410" width="210" height="30" as="geometry"/>
                </mxCell>
                <mxCell id="71" value="" style="rounded=0;whiteSpace=wrap;html=1;direction=south;" parent="1" vertex="1">
                    <mxGeometry x="730" y="1660" width="280" height="340" as="geometry"/>
                </mxCell>
                <mxCell id="72" value="&lt;span style=&quot;font-size: 18px&quot;&gt;&lt;b&gt;ユーザー詳細画面&lt;/b&gt;&lt;/span&gt;" style="text;html=1;strokeColor=none;fillColor=none;align=center;verticalAlign=middle;whiteSpace=wrap;rounded=0;" parent="1" vertex="1">
                    <mxGeometry x="760" y="1680" width="220" height="20" as="geometry"/>
                </mxCell>
                <mxCell id="73" value="" style="rounded=0;whiteSpace=wrap;html=1;direction=south;" parent="1" vertex="1">
                    <mxGeometry x="1110" y="1660" width="350" height="340" as="geometry"/>
                </mxCell>
                <mxCell id="74" value="&lt;span style=&quot;font-size: 18px&quot;&gt;&lt;b&gt;チャット画面&lt;/b&gt;&lt;/span&gt;" style="text;html=1;strokeColor=none;fillColor=none;align=center;verticalAlign=middle;whiteSpace=wrap;rounded=0;" parent="1" vertex="1">
                    <mxGeometry x="1150" y="1680" width="220" height="20" as="geometry"/>
                </mxCell>
                <mxCell id="75" value="" style="rounded=0;whiteSpace=wrap;html=1;" parent="1" vertex="1">
                    <mxGeometry x="790" y="1760" width="150" height="40" as="geometry"/>
                </mxCell>
                <mxCell id="76" value="ユーザー" style="text;html=1;strokeColor=none;fillColor=none;align=center;verticalAlign=middle;whiteSpace=wrap;rounded=0;" parent="1" vertex="1">
                    <mxGeometry x="815" y="1770" width="100" height="30" as="geometry"/>
                </mxCell>
                <mxCell id="77" style="edgeStyle=orthogonalEdgeStyle;rounded=0;orthogonalLoop=1;jettySize=auto;html=1;entryX=0.677;entryY=1.017;entryDx=0;entryDy=0;entryPerimeter=0;" parent="1" source="78" target="73" edge="1">
                    <mxGeometry relative="1" as="geometry"/>
                </mxCell>
                <mxCell id="78" value="&lt;font style=&quot;font-size: 14px&quot;&gt;チャットを始めるbtn&lt;/font&gt;" style="rounded=1;whiteSpace=wrap;html=1;" parent="1" vertex="1">
                    <mxGeometry x="805" y="1865" width="120" height="50" as="geometry"/>
                </mxCell>
                <mxCell id="79" value="チャット内容のフォーム" style="rounded=0;whiteSpace=wrap;html=1;" parent="1" vertex="1">
                    <mxGeometry x="1170" y="1735" width="180" height="35" as="geometry"/>
                </mxCell>
                <mxCell id="80" style="edgeStyle=orthogonalEdgeStyle;rounded=0;orthogonalLoop=1;jettySize=auto;html=1;entryX=0.5;entryY=0;entryDx=0;entryDy=0;" parent="1" source="81" target="83" edge="1">
                    <mxGeometry relative="1" as="geometry"/>
                </mxCell>
                <mxCell id="81" value="送信" style="rounded=1;whiteSpace=wrap;html=1;" parent="1" vertex="1">
                    <mxGeometry x="1360" y="1730" width="60" height="40" as="geometry"/>
                </mxCell>
                <mxCell id="82" value="投稿者名" style="rounded=0;whiteSpace=wrap;html=1;" parent="1" vertex="1">
                    <mxGeometry x="1140" y="1830" width="90" height="30" as="geometry"/>
                </mxCell>
                <mxCell id="83" value="内容" style="rounded=0;whiteSpace=wrap;html=1;" parent="1" vertex="1">
                    <mxGeometry x="1240" y="1830" width="210" height="30" as="geometry"/>
                </mxCell>
                <mxCell id="91" value="&lt;font style=&quot;font-size: 48px&quot;&gt;&lt;b&gt;Room1&lt;/b&gt;&lt;/font&gt;" style="whiteSpace=wrap;html=1;" parent="1" vertex="1">
                    <mxGeometry x="2710" y="150" width="290" height="120" as="geometry"/>
                </mxCell>
                <mxCell id="98" value="&lt;font style=&quot;font-size: 24px&quot;&gt;user1&lt;/font&gt;" style="whiteSpace=wrap;html=1;" parent="1" vertex="1">
                    <mxGeometry x="1980" y="936.25" width="120" height="40" as="geometry"/>
                </mxCell>
                <mxCell id="102" value="&lt;span style=&quot;font-size: 24px&quot;&gt;メッセージ内容&lt;/span&gt;&lt;br style=&quot;font-size: 24px&quot;&gt;&lt;br style=&quot;font-size: 24px&quot;&gt;&lt;span style=&quot;font-size: 24px&quot;&gt;user_id&lt;/span&gt;&lt;br style=&quot;font-size: 24px&quot;&gt;&lt;br style=&quot;font-size: 24px&quot;&gt;&lt;span style=&quot;font-size: 24px&quot;&gt;name&lt;/span&gt;&lt;br style=&quot;font-size: 24px&quot;&gt;&lt;br style=&quot;font-size: 24px&quot;&gt;&lt;span style=&quot;font-size: 24px&quot;&gt;message_&lt;/span&gt;&lt;span style=&quot;font-size: 24px&quot;&gt;id&lt;/span&gt;&lt;br style=&quot;font-size: 24px&quot;&gt;&lt;br style=&quot;font-size: 24px&quot;&gt;&lt;span style=&quot;font-size: 24px&quot;&gt;room_id&lt;/span&gt;" style="whiteSpace=wrap;html=1;" parent="1" vertex="1">
                    <mxGeometry x="2340" y="375" width="270" height="385" as="geometry"/>
                </mxCell>
                <mxCell id="103" value="&lt;font style=&quot;font-size: 24px&quot;&gt;メッセージ1&lt;/font&gt;" style="whiteSpace=wrap;html=1;" parent="1" vertex="1">
                    <mxGeometry x="2380" y="340" width="185" height="40" as="geometry"/>
                </mxCell>
                <mxCell id="108" value="&lt;font style=&quot;font-size: 24px&quot;&gt;メッセージ内容&lt;br&gt;&lt;br&gt;user_id&lt;br&gt;&lt;br&gt;name&lt;br&gt;&lt;br&gt;message_id&lt;br&gt;&lt;br&gt;room_id&lt;br&gt;&lt;/font&gt;" style="whiteSpace=wrap;html=1;" parent="1" vertex="1">
                    <mxGeometry x="2340" y="865" width="270" height="385" as="geometry"/>
                </mxCell>
                <mxCell id="109" value="&lt;font style=&quot;font-size: 24px&quot;&gt;メッセージ2&lt;/font&gt;" style="whiteSpace=wrap;html=1;" parent="1" vertex="1">
                    <mxGeometry x="2380" y="830" width="185" height="40" as="geometry"/>
                </mxCell>
                <mxCell id="110" value="&lt;span style=&quot;font-size: 24px&quot;&gt;メッセージ内容&lt;/span&gt;&lt;br style=&quot;font-size: 24px&quot;&gt;&lt;br style=&quot;font-size: 24px&quot;&gt;&lt;span style=&quot;font-size: 24px&quot;&gt;user_id&lt;/span&gt;&lt;br style=&quot;font-size: 24px&quot;&gt;&lt;br style=&quot;font-size: 24px&quot;&gt;&lt;span style=&quot;font-size: 24px&quot;&gt;name&lt;/span&gt;&lt;br style=&quot;font-size: 24px&quot;&gt;&lt;br style=&quot;font-size: 24px&quot;&gt;&lt;span style=&quot;font-size: 24px&quot;&gt;message_&lt;/span&gt;&lt;span style=&quot;font-size: 24px&quot;&gt;id&lt;/span&gt;&lt;br style=&quot;font-size: 24px&quot;&gt;&lt;br style=&quot;font-size: 24px&quot;&gt;&lt;span style=&quot;font-size: 24px&quot;&gt;room_id&lt;/span&gt;" style="whiteSpace=wrap;html=1;" parent="1" vertex="1">
                    <mxGeometry x="2340" y="1375" width="270" height="385" as="geometry"/>
                </mxCell>
                <mxCell id="111" value="&lt;font style=&quot;font-size: 24px&quot;&gt;メッセージ3&lt;/font&gt;" style="whiteSpace=wrap;html=1;" parent="1" vertex="1">
                    <mxGeometry x="2380" y="1340" width="185" height="40" as="geometry"/>
                </mxCell>
                <mxCell id="115" style="edgeStyle=orthogonalEdgeStyle;rounded=0;orthogonalLoop=1;jettySize=auto;html=1;entryX=0;entryY=0.5;entryDx=0;entryDy=0;" parent="1" source="118" target="120" edge="1">
                    <mxGeometry relative="1" as="geometry"/>
                </mxCell>
                <mxCell id="116" style="edgeStyle=orthogonalEdgeStyle;rounded=0;orthogonalLoop=1;jettySize=auto;html=1;entryX=-0.014;entryY=0.524;entryDx=0;entryDy=0;entryPerimeter=0;" parent="1" source="118" target="122" edge="1">
                    <mxGeometry relative="1" as="geometry"/>
                </mxCell>
                <mxCell id="117" style="edgeStyle=orthogonalEdgeStyle;rounded=0;orthogonalLoop=1;jettySize=auto;html=1;entryX=0.001;entryY=0.547;entryDx=0;entryDy=0;entryPerimeter=0;" parent="1" source="118" target="124" edge="1">
                    <mxGeometry relative="1" as="geometry"/>
                </mxCell>
                <mxCell id="118" value="&lt;font style=&quot;font-size: 24px&quot;&gt;user_id: 2&lt;br&gt;&lt;br&gt;name: はなこ&lt;/font&gt;" style="whiteSpace=wrap;html=1;" parent="1" vertex="1">
                    <mxGeometry x="2890" y="963.75" width="180" height="225" as="geometry"/>
                </mxCell>
                <mxCell id="119" value="&lt;font style=&quot;font-size: 24px&quot;&gt;user1&lt;/font&gt;" style="whiteSpace=wrap;html=1;" parent="1" vertex="1">
                    <mxGeometry x="2920" y="946.25" width="120" height="40" as="geometry"/>
                </mxCell>
                <mxCell id="120" value="&lt;span style=&quot;font-size: 24px&quot;&gt;メッセージ内容&lt;/span&gt;&lt;br style=&quot;font-size: 24px&quot;&gt;&lt;br style=&quot;font-size: 24px&quot;&gt;&lt;span style=&quot;font-size: 24px&quot;&gt;user_id&lt;/span&gt;&lt;br style=&quot;font-size: 24px&quot;&gt;&lt;br style=&quot;font-size: 24px&quot;&gt;&lt;span style=&quot;font-size: 24px&quot;&gt;name&lt;/span&gt;&lt;br style=&quot;font-size: 24px&quot;&gt;&lt;br style=&quot;font-size: 24px&quot;&gt;&lt;span style=&quot;font-size: 24px&quot;&gt;message_&lt;/span&gt;&lt;span style=&quot;font-size: 24px&quot;&gt;id&lt;/span&gt;&lt;br style=&quot;font-size: 24px&quot;&gt;&lt;br style=&quot;font-size: 24px&quot;&gt;&lt;span style=&quot;font-size: 24px&quot;&gt;room_id&lt;/span&gt;" style="whiteSpace=wrap;html=1;" parent="1" vertex="1">
                    <mxGeometry x="3280" y="385" width="270" height="385" as="geometry"/>
                </mxCell>
                <mxCell id="121" value="&lt;font style=&quot;font-size: 24px&quot;&gt;メッセージ1&lt;/font&gt;" style="whiteSpace=wrap;html=1;" parent="1" vertex="1">
                    <mxGeometry x="3320" y="350" width="185" height="40" as="geometry"/>
                </mxCell>
                <mxCell id="122" value="&lt;span style=&quot;font-size: 24px&quot;&gt;メッセージ内容&lt;/span&gt;&lt;br style=&quot;font-size: 24px&quot;&gt;&lt;br style=&quot;font-size: 24px&quot;&gt;&lt;span style=&quot;font-size: 24px&quot;&gt;user_id&lt;/span&gt;&lt;br style=&quot;font-size: 24px&quot;&gt;&lt;br style=&quot;font-size: 24px&quot;&gt;&lt;span style=&quot;font-size: 24px&quot;&gt;name&lt;/span&gt;&lt;br style=&quot;font-size: 24px&quot;&gt;&lt;br style=&quot;font-size: 24px&quot;&gt;&lt;span style=&quot;font-size: 24px&quot;&gt;message_&lt;/span&gt;&lt;span style=&quot;font-size: 24px&quot;&gt;id&lt;/span&gt;&lt;br style=&quot;font-size: 24px&quot;&gt;&lt;br style=&quot;font-size: 24px&quot;&gt;&lt;span style=&quot;font-size: 24px&quot;&gt;room_id&lt;/span&gt;" style="whiteSpace=wrap;html=1;" parent="1" vertex="1">
                    <mxGeometry x="3280" y="875" width="270" height="385" as="geometry"/>
                </mxCell>
                <mxCell id="123" value="&lt;font style=&quot;font-size: 24px&quot;&gt;メッセージ2&lt;/font&gt;" style="whiteSpace=wrap;html=1;" parent="1" vertex="1">
                    <mxGeometry x="3320" y="840" width="185" height="40" as="geometry"/>
                </mxCell>
                <mxCell id="124" value="&lt;span style=&quot;font-size: 24px&quot;&gt;メッセージ内容&lt;/span&gt;&lt;br style=&quot;font-size: 24px&quot;&gt;&lt;br style=&quot;font-size: 24px&quot;&gt;&lt;span style=&quot;font-size: 24px&quot;&gt;user_id&lt;/span&gt;&lt;br style=&quot;font-size: 24px&quot;&gt;&lt;br style=&quot;font-size: 24px&quot;&gt;&lt;span style=&quot;font-size: 24px&quot;&gt;name&lt;/span&gt;&lt;br style=&quot;font-size: 24px&quot;&gt;&lt;br style=&quot;font-size: 24px&quot;&gt;&lt;span style=&quot;font-size: 24px&quot;&gt;message_&lt;/span&gt;&lt;span style=&quot;font-size: 24px&quot;&gt;id&lt;/span&gt;&lt;br style=&quot;font-size: 24px&quot;&gt;&lt;br style=&quot;font-size: 24px&quot;&gt;&lt;span style=&quot;font-size: 24px&quot;&gt;room_id&lt;/span&gt;" style="whiteSpace=wrap;html=1;" parent="1" vertex="1">
                    <mxGeometry x="3280" y="1385" width="270" height="385" as="geometry"/>
                </mxCell>
                <mxCell id="125" value="&lt;font style=&quot;font-size: 24px&quot;&gt;メッセージ3&lt;/font&gt;" style="whiteSpace=wrap;html=1;" parent="1" vertex="1">
                    <mxGeometry x="3320" y="1350" width="185" height="40" as="geometry"/>
                </mxCell>
                <mxCell id="127" value="" style="shape=table;html=1;whiteSpace=wrap;startSize=0;container=1;collapsible=0;childLayout=tableLayout;" parent="1" vertex="1">
                    <mxGeometry x="4820" y="1650" width="1510" height="480" as="geometry"/>
                </mxCell>
                <mxCell id="128" value="" style="shape=partialRectangle;html=1;whiteSpace=wrap;collapsible=0;dropTarget=0;pointerEvents=0;fillColor=none;top=0;left=0;bottom=0;right=0;points=[[0,0.5],[1,0.5]];portConstraint=eastwest;" parent="127" vertex="1">
                    <mxGeometry width="1510" height="120" as="geometry"/>
                </mxCell>
                <mxCell id="129" value="&lt;font style=&quot;font-size: 48px&quot;&gt;room_id&lt;/font&gt;" style="shape=partialRectangle;html=1;whiteSpace=wrap;connectable=0;overflow=hidden;fillColor=none;top=0;left=0;bottom=0;right=0;" parent="128" vertex="1">
                    <mxGeometry width="210" height="120" as="geometry"/>
                </mxCell>
                <mxCell id="130" value="&lt;span style=&quot;font-size: 48px&quot;&gt;user_id&lt;/span&gt;" style="shape=partialRectangle;html=1;whiteSpace=wrap;connectable=0;overflow=hidden;fillColor=none;top=0;left=0;bottom=0;right=0;" parent="128" vertex="1">
                    <mxGeometry x="210" width="260" height="120" as="geometry"/>
                </mxCell>
                <mxCell id="131" value="&lt;span style=&quot;font-size: 48px&quot;&gt;name&lt;/span&gt;" style="shape=partialRectangle;html=1;whiteSpace=wrap;connectable=0;overflow=hidden;fillColor=none;top=0;left=0;bottom=0;right=0;" parent="128" vertex="1">
                    <mxGeometry x="470" width="20" height="120" as="geometry"/>
                </mxCell>
                <mxCell id="132" value="&lt;span style=&quot;font-family: &amp;#34;helvetica&amp;#34; ; font-size: 48px&quot;&gt;message&lt;/span&gt;" style="shape=partialRectangle;html=1;whiteSpace=wrap;connectable=0;overflow=hidden;fillColor=none;top=0;left=0;bottom=0;right=0;" parent="128" vertex="1">
                    <mxGeometry x="490" width="1020" height="120" as="geometry"/>
                </mxCell>
                <mxCell id="133" value="" style="shape=partialRectangle;html=1;whiteSpace=wrap;collapsible=0;dropTarget=0;pointerEvents=0;fillColor=none;top=0;left=0;bottom=0;right=0;points=[[0,0.5],[1,0.5]];portConstraint=eastwest;" parent="127" vertex="1">
                    <mxGeometry y="120" width="1510" height="120" as="geometry"/>
                </mxCell>
                <mxCell id="134" value="&lt;font style=&quot;font-size: 36px&quot;&gt;1&lt;/font&gt;" style="shape=partialRectangle;html=1;whiteSpace=wrap;connectable=0;overflow=hidden;fillColor=none;top=0;left=0;bottom=0;right=0;" parent="133" vertex="1">
                    <mxGeometry width="210" height="120" as="geometry"/>
                </mxCell>
                <mxCell id="135" value="&lt;span style=&quot;font-size: 36px&quot;&gt;1&lt;/span&gt;" style="shape=partialRectangle;html=1;whiteSpace=wrap;connectable=0;overflow=hidden;fillColor=none;top=0;left=0;bottom=0;right=0;" parent="133" vertex="1">
                    <mxGeometry x="210" width="260" height="120" as="geometry"/>
                </mxCell>
                <mxCell id="136" value="&lt;span style=&quot;font-size: 36px&quot;&gt;たろう&lt;/span&gt;" style="shape=partialRectangle;html=1;whiteSpace=wrap;connectable=0;overflow=hidden;fillColor=none;top=0;left=0;bottom=0;right=0;" parent="133" vertex="1">
                    <mxGeometry x="470" width="20" height="120" as="geometry"/>
                </mxCell>
                <mxCell id="137" value="&lt;span style=&quot;font-size: 36px&quot;&gt;こんにちは！&lt;/span&gt;" style="shape=partialRectangle;html=1;whiteSpace=wrap;connectable=0;overflow=hidden;fillColor=none;top=0;left=0;bottom=0;right=0;" parent="133" vertex="1">
                    <mxGeometry x="490" width="1020" height="120" as="geometry"/>
                </mxCell>
                <mxCell id="138" value="" style="shape=partialRectangle;html=1;whiteSpace=wrap;collapsible=0;dropTarget=0;pointerEvents=0;fillColor=none;top=0;left=0;bottom=0;right=0;points=[[0,0.5],[1,0.5]];portConstraint=eastwest;" parent="127" vertex="1">
                    <mxGeometry y="240" width="1510" height="120" as="geometry"/>
                </mxCell>
                <mxCell id="139" value="&lt;span style=&quot;font-size: 36px&quot;&gt;1&lt;/span&gt;" style="shape=partialRectangle;html=1;whiteSpace=wrap;connectable=0;overflow=hidden;fillColor=none;top=0;left=0;bottom=0;right=0;" parent="138" vertex="1">
                    <mxGeometry width="210" height="120" as="geometry"/>
                </mxCell>
                <mxCell id="140" value="&lt;span style=&quot;font-size: 36px&quot;&gt;1&lt;/span&gt;" style="shape=partialRectangle;html=1;whiteSpace=wrap;connectable=0;overflow=hidden;fillColor=none;top=0;left=0;bottom=0;right=0;" parent="138" vertex="1">
                    <mxGeometry x="210" width="260" height="120" as="geometry"/>
                </mxCell>
                <mxCell id="141" value="&lt;span style=&quot;font-size: 36px&quot;&gt;たろう&lt;/span&gt;" style="shape=partialRectangle;html=1;whiteSpace=wrap;connectable=0;overflow=hidden;fillColor=none;top=0;left=0;bottom=0;right=0;" parent="138" vertex="1">
                    <mxGeometry x="470" width="20" height="120" as="geometry"/>
                </mxCell>
                <mxCell id="142" value="&lt;span style=&quot;font-size: 36px&quot;&gt;今日はいい天気ですね｡&lt;/span&gt;" style="shape=partialRectangle;html=1;whiteSpace=wrap;connectable=0;overflow=hidden;fillColor=none;top=0;left=0;bottom=0;right=0;" parent="138" vertex="1">
                    <mxGeometry x="490" width="1020" height="120" as="geometry"/>
                </mxCell>
                <mxCell id="143" value="" style="shape=partialRectangle;html=1;whiteSpace=wrap;collapsible=0;dropTarget=0;pointerEvents=0;fillColor=none;top=0;left=0;bottom=0;right=0;points=[[0,0.5],[1,0.5]];portConstraint=eastwest;" parent="127" vertex="1">
                    <mxGeometry y="360" width="1510" height="120" as="geometry"/>
                </mxCell>
                <mxCell id="144" value="&lt;span style=&quot;font-size: 36px&quot;&gt;1&lt;/span&gt;" style="shape=partialRectangle;html=1;whiteSpace=wrap;connectable=0;overflow=hidden;fillColor=none;top=0;left=0;bottom=0;right=0;" parent="143" vertex="1">
                    <mxGeometry width="210" height="120" as="geometry"/>
                </mxCell>
                <mxCell id="145" value="&lt;span style=&quot;font-size: 36px&quot;&gt;2&lt;/span&gt;" style="shape=partialRectangle;html=1;whiteSpace=wrap;connectable=0;overflow=hidden;fillColor=none;top=0;left=0;bottom=0;right=0;" parent="143" vertex="1">
                    <mxGeometry x="210" width="260" height="120" as="geometry"/>
                </mxCell>
                <mxCell id="146" value="&lt;span style=&quot;font-size: 36px&quot;&gt;はなこ&lt;/span&gt;" style="shape=partialRectangle;html=1;whiteSpace=wrap;connectable=0;overflow=hidden;fillColor=none;top=0;left=0;bottom=0;right=0;" parent="143" vertex="1">
                    <mxGeometry x="470" width="20" height="120" as="geometry"/>
                </mxCell>
                <mxCell id="147" value="&lt;span style=&quot;font-size: 36px&quot;&gt;そうかもしれませんね｡&lt;/span&gt;" style="shape=partialRectangle;html=1;whiteSpace=wrap;connectable=0;overflow=hidden;fillColor=none;top=0;left=0;bottom=0;right=0;" parent="143" vertex="1">
                    <mxGeometry x="490" width="1020" height="120" as="geometry"/>
                </mxCell>
                <mxCell id="149" value="" style="shape=table;html=1;whiteSpace=wrap;startSize=0;container=1;collapsible=0;childLayout=tableLayout;" parent="1" vertex="1">
                    <mxGeometry x="4610" y="1650" width="210" height="480" as="geometry"/>
                </mxCell>
                <mxCell id="150" value="" style="shape=partialRectangle;html=1;whiteSpace=wrap;collapsible=0;dropTarget=0;pointerEvents=0;fillColor=none;top=0;left=0;bottom=0;right=0;points=[[0,0.5],[1,0.5]];portConstraint=eastwest;" parent="149" vertex="1">
                    <mxGeometry width="210" height="120" as="geometry"/>
                </mxCell>
                <mxCell id="151" value="&lt;span style=&quot;font-size: 48px&quot;&gt;id&lt;/span&gt;" style="shape=partialRectangle;html=1;whiteSpace=wrap;connectable=0;overflow=hidden;fillColor=none;top=0;left=0;bottom=0;right=0;" parent="150" vertex="1">
                    <mxGeometry width="210" height="120" as="geometry"/>
                </mxCell>
                <mxCell id="152" value="" style="shape=partialRectangle;html=1;whiteSpace=wrap;collapsible=0;dropTarget=0;pointerEvents=0;fillColor=none;top=0;left=0;bottom=0;right=0;points=[[0,0.5],[1,0.5]];portConstraint=eastwest;" parent="149" vertex="1">
                    <mxGeometry y="120" width="210" height="120" as="geometry"/>
                </mxCell>
                <mxCell id="153" value="&lt;span style=&quot;font-size: 36px&quot;&gt;1&lt;/span&gt;" style="shape=partialRectangle;html=1;whiteSpace=wrap;connectable=0;overflow=hidden;fillColor=none;top=0;left=0;bottom=0;right=0;" parent="152" vertex="1">
                    <mxGeometry width="210" height="120" as="geometry"/>
                </mxCell>
                <mxCell id="154" value="" style="shape=partialRectangle;html=1;whiteSpace=wrap;collapsible=0;dropTarget=0;pointerEvents=0;fillColor=none;top=0;left=0;bottom=0;right=0;points=[[0,0.5],[1,0.5]];portConstraint=eastwest;" parent="149" vertex="1">
                    <mxGeometry y="240" width="210" height="120" as="geometry"/>
                </mxCell>
                <mxCell id="155" value="&lt;span style=&quot;font-size: 36px&quot;&gt;2&lt;/span&gt;" style="shape=partialRectangle;html=1;whiteSpace=wrap;connectable=0;overflow=hidden;fillColor=none;top=0;left=0;bottom=0;right=0;" parent="154" vertex="1">
                    <mxGeometry width="210" height="120" as="geometry"/>
                </mxCell>
                <mxCell id="156" value="" style="shape=partialRectangle;html=1;whiteSpace=wrap;collapsible=0;dropTarget=0;pointerEvents=0;fillColor=none;top=0;left=0;bottom=0;right=0;points=[[0,0.5],[1,0.5]];portConstraint=eastwest;" parent="149" vertex="1">
                    <mxGeometry y="360" width="210" height="120" as="geometry"/>
                </mxCell>
                <mxCell id="157" value="&lt;meta charset=&quot;utf-8&quot;&gt;&lt;span style=&quot;color: rgb(240, 240, 240); font-family: helvetica; font-size: 36px; font-style: normal; font-weight: 400; letter-spacing: normal; text-align: center; text-indent: 0px; text-transform: none; word-spacing: 0px; background-color: rgb(42, 42, 42); display: inline; float: none;&quot;&gt;3&lt;/span&gt;" style="shape=partialRectangle;html=1;whiteSpace=wrap;connectable=0;overflow=hidden;fillColor=none;top=0;left=0;bottom=0;right=0;" parent="156" vertex="1">
                    <mxGeometry width="210" height="120" as="geometry"/>
                </mxCell>
                <mxCell id="158" value="" style="shape=actor;whiteSpace=wrap;html=1;" parent="1" vertex="1">
                    <mxGeometry x="1950" y="795" width="180" height="130" as="geometry"/>
                </mxCell>
                <mxCell id="159" value="" style="shape=actor;whiteSpace=wrap;html=1;" parent="1" vertex="1">
                    <mxGeometry x="2885" y="810" width="180" height="130" as="geometry"/>
                </mxCell>
                <mxCell id="160" value="&lt;font style=&quot;font-size: 36px&quot;&gt;ユーザーコントローラー&lt;br&gt;index&lt;br&gt;show&lt;/font&gt;" style="text;html=1;align=center;verticalAlign=middle;resizable=0;points=[];autosize=1;" parent="1" vertex="1">
                    <mxGeometry x="470" y="320" width="410" height="70" as="geometry"/>
                </mxCell>
                <mxCell id="161" value="&lt;font style=&quot;font-size: 36px&quot;&gt;conversationコントローラー&lt;br&gt;show・create・destroy&lt;/font&gt;" style="text;html=1;align=center;verticalAlign=middle;resizable=0;points=[];autosize=1;" parent="1" vertex="1">
                    <mxGeometry x="1055" y="315" width="470" height="50" as="geometry"/>
                </mxCell>
                <mxCell id="162" value="&lt;font style=&quot;font-size: 36px&quot;&gt;&lt;b&gt;Conversation モデル&lt;/b&gt;&lt;/font&gt;" style="text;html=1;align=center;verticalAlign=middle;resizable=0;points=[];autosize=1;" parent="1" vertex="1">
                    <mxGeometry x="4610" y="1590" width="360" height="30" as="geometry"/>
                </mxCell>
                <mxCell id="163" value="&lt;font&gt;&lt;font style=&quot;font-size: 36px&quot;&gt;基本的に､room の中で､user 同士がチャットを投稿する｡　このConversation モデルを見てみると､このモデルはメッセージを保存しておくためのもの｡　&lt;br&gt;&lt;br&gt;そして､その保存するメッセージに加えて､投稿者のid とname､投稿した場所のid を一緒に保存している｡　&lt;br&gt;&lt;br&gt;そうすることで､room_id ごと､user_id ごと､にメッセージ管理ができるようになる｡&lt;/font&gt;&lt;br&gt;&lt;/font&gt;" style="text;html=1;align=center;verticalAlign=middle;resizable=0;points=[];autosize=1;" parent="1" vertex="1">
                    <mxGeometry x="4280" y="2220" width="2470" height="110" as="geometry"/>
                </mxCell>
                <mxCell id="164" value="&lt;font style=&quot;font-size: 24px&quot;&gt;&lt;b&gt;User&lt;/b&gt;&lt;/font&gt;" style="whiteSpace=wrap;html=1;" parent="1" vertex="1">
                    <mxGeometry x="4100" y="180" width="160" height="60" as="geometry"/>
                </mxCell>
                <mxCell id="166" value="" style="whiteSpace=wrap;html=1;" parent="1" vertex="1">
                    <mxGeometry x="4060" y="500" width="240" height="190" as="geometry"/>
                </mxCell>
                <mxCell id="167" value="&lt;b style=&quot;font-size: 24px&quot;&gt;User&lt;/b&gt;" style="whiteSpace=wrap;html=1;" parent="1" vertex="1">
                    <mxGeometry x="4100" y="480" width="160" height="60" as="geometry"/>
                </mxCell>
                <mxCell id="168" value="" style="whiteSpace=wrap;html=1;" parent="1" vertex="1">
                    <mxGeometry x="4060" y="830" width="240" height="190" as="geometry"/>
                </mxCell>
                <mxCell id="169" value="&lt;b style=&quot;font-size: 24px&quot;&gt;User&lt;/b&gt;" style="whiteSpace=wrap;html=1;" parent="1" vertex="1">
                    <mxGeometry x="4100" y="810" width="160" height="60" as="geometry"/>
                </mxCell>
                <mxCell id="170" value="" style="whiteSpace=wrap;html=1;" parent="1" vertex="1">
                    <mxGeometry x="4550" y="190" width="240" height="190" as="geometry"/>
                </mxCell>
                <mxCell id="171" value="&lt;font style=&quot;font-size: 24px&quot;&gt;&lt;b&gt;Room&lt;/b&gt;&lt;/font&gt;" style="whiteSpace=wrap;html=1;" parent="1" vertex="1">
                    <mxGeometry x="4590" y="170" width="160" height="60" as="geometry"/>
                </mxCell>
                <mxCell id="172" value="" style="whiteSpace=wrap;html=1;" parent="1" vertex="1">
                    <mxGeometry x="4550" y="490" width="240" height="190" as="geometry"/>
                </mxCell>
                <mxCell id="173" value="&lt;font style=&quot;font-size: 24px&quot;&gt;&lt;b&gt;Room&lt;/b&gt;&lt;/font&gt;" style="whiteSpace=wrap;html=1;" parent="1" vertex="1">
                    <mxGeometry x="4590" y="470" width="160" height="60" as="geometry"/>
                </mxCell>
                <mxCell id="174" value="" style="whiteSpace=wrap;html=1;" parent="1" vertex="1">
                    <mxGeometry x="4550" y="820" width="240" height="190" as="geometry"/>
                </mxCell>
                <mxCell id="175" value="&lt;font style=&quot;font-size: 24px&quot;&gt;&lt;b&gt;Room&lt;/b&gt;&lt;/font&gt;" style="whiteSpace=wrap;html=1;" parent="1" vertex="1">
                    <mxGeometry x="4590" y="800" width="160" height="60" as="geometry"/>
                </mxCell>
                <mxCell id="176" value="" style="whiteSpace=wrap;html=1;" parent="1" vertex="1">
                    <mxGeometry x="5030" y="170" width="240" height="190" as="geometry"/>
                </mxCell>
                <mxCell id="177" value="&lt;font style=&quot;font-size: 24px&quot;&gt;&lt;b&gt;Chat&lt;/b&gt;&lt;/font&gt;" style="whiteSpace=wrap;html=1;" parent="1" vertex="1">
                    <mxGeometry x="5070" y="150" width="160" height="60" as="geometry"/>
                </mxCell>
                <mxCell id="178" value="" style="whiteSpace=wrap;html=1;" parent="1" vertex="1">
                    <mxGeometry x="5030" y="470" width="240" height="190" as="geometry"/>
                </mxCell>
                <mxCell id="179" value="&lt;b style=&quot;font-size: 24px&quot;&gt;Chat&lt;/b&gt;" style="whiteSpace=wrap;html=1;" parent="1" vertex="1">
                    <mxGeometry x="5070" y="450" width="160" height="60" as="geometry"/>
                </mxCell>
                <mxCell id="180" value="" style="whiteSpace=wrap;html=1;" parent="1" vertex="1">
                    <mxGeometry x="5030" y="800" width="240" height="190" as="geometry"/>
                </mxCell>
                <mxCell id="181" value="&lt;b style=&quot;font-size: 24px&quot;&gt;Chat&lt;/b&gt;" style="whiteSpace=wrap;html=1;" parent="1" vertex="1">
                    <mxGeometry x="5070" y="780" width="160" height="60" as="geometry"/>
                </mxCell>
                <mxCell id="183" value="" style="endArrow=classic;html=1;" parent="1" edge="1">
                    <mxGeometry width="50" height="50" relative="1" as="geometry">
                        <mxPoint x="4300" y="295" as="sourcePoint"/>
                        <mxPoint x="4540" y="310" as="targetPoint"/>
                    </mxGeometry>
                </mxCell>
                <mxCell id="185" value="" style="endArrow=classic;html=1;" parent="1" edge="1">
                    <mxGeometry width="50" height="50" relative="1" as="geometry">
                        <mxPoint x="4300" y="290" as="sourcePoint"/>
                        <mxPoint x="4540" y="590" as="targetPoint"/>
                    </mxGeometry>
                </mxCell>
                <mxCell id="186" value="" style="endArrow=classic;html=1;exitX=1;exitY=0.5;exitDx=0;exitDy=0;" parent="1" source="166" edge="1">
                    <mxGeometry width="50" height="50" relative="1" as="geometry">
                        <mxPoint x="4500" y="500" as="sourcePoint"/>
                        <mxPoint x="4530" y="340" as="targetPoint"/>
                    </mxGeometry>
                </mxCell>
                <mxCell id="187" value="" style="endArrow=classic;html=1;entryX=0;entryY=0.5;entryDx=0;entryDy=0;" parent="1" target="174" edge="1">
                    <mxGeometry width="50" height="50" relative="1" as="geometry">
                        <mxPoint x="4300" y="600" as="sourcePoint"/>
                        <mxPoint x="4540" y="350" as="targetPoint"/>
                    </mxGeometry>
                </mxCell>
                <mxCell id="189" value="" style="endArrow=classic;html=1;exitX=1;exitY=0.5;exitDx=0;exitDy=0;" parent="1" edge="1">
                    <mxGeometry width="50" height="50" relative="1" as="geometry">
                        <mxPoint x="4300" y="945" as="sourcePoint"/>
                        <mxPoint x="4540" y="630" as="targetPoint"/>
                    </mxGeometry>
                </mxCell>
                <mxCell id="190" value="" style="endArrow=classic;html=1;" parent="1" edge="1">
                    <mxGeometry width="50" height="50" relative="1" as="geometry">
                        <mxPoint x="4300" y="960" as="sourcePoint"/>
                        <mxPoint x="4540" y="950" as="targetPoint"/>
                    </mxGeometry>
                </mxCell>
                <mxCell id="197" value="" style="whiteSpace=wrap;html=1;" parent="1" vertex="1">
                    <mxGeometry x="5510" y="166.25" width="240" height="190" as="geometry"/>
                </mxCell>
                <mxCell id="198" value="&lt;font style=&quot;font-size: 24px&quot;&gt;&lt;b&gt;User&lt;/b&gt;&lt;/font&gt;" style="whiteSpace=wrap;html=1;" parent="1" vertex="1">
                    <mxGeometry x="5550" y="146.25" width="160" height="60" as="geometry"/>
                </mxCell>
                <mxCell id="199" value="" style="whiteSpace=wrap;html=1;" parent="1" vertex="1">
                    <mxGeometry x="5510" y="466.25" width="240" height="190" as="geometry"/>
                </mxCell>
                <mxCell id="200" value="&lt;b style=&quot;font-size: 24px&quot;&gt;User&lt;/b&gt;" style="whiteSpace=wrap;html=1;" parent="1" vertex="1">
                    <mxGeometry x="5550" y="446.25" width="160" height="60" as="geometry"/>
                </mxCell>
                <mxCell id="201" value="" style="whiteSpace=wrap;html=1;" parent="1" vertex="1">
                    <mxGeometry x="5510" y="796.25" width="240" height="190" as="geometry"/>
                </mxCell>
                <mxCell id="202" value="&lt;b style=&quot;font-size: 24px&quot;&gt;User&lt;/b&gt;" style="whiteSpace=wrap;html=1;" parent="1" vertex="1">
                    <mxGeometry x="5550" y="776.25" width="160" height="60" as="geometry"/>
                </mxCell>
                <mxCell id="209" value="&lt;font style=&quot;font-size: 24px&quot;&gt;User_id&lt;br&gt;&lt;br&gt;Room_id&lt;/font&gt;" style="whiteSpace=wrap;html=1;" parent="1" vertex="1">
                    <mxGeometry x="4300" y="1320" width="290" height="260" as="geometry"/>
                </mxCell>
                <mxCell id="210" value="&lt;b style=&quot;font-size: 24px&quot;&gt;User_Room&amp;nbsp;&lt;br&gt;中間テーブル&lt;br&gt;&lt;/b&gt;" style="whiteSpace=wrap;html=1;" parent="1" vertex="1">
                    <mxGeometry x="4340" y="1280" width="210" height="120" as="geometry"/>
                </mxCell>
                <mxCell id="212" value="&lt;b&gt;&lt;font style=&quot;font-size: 48px&quot;&gt;多&lt;/font&gt;&lt;/b&gt;" style="text;html=1;align=center;verticalAlign=middle;resizable=0;points=[];autosize=1;" parent="1" vertex="1">
                    <mxGeometry x="4120" y="1065" width="60" height="30" as="geometry"/>
                </mxCell>
                <mxCell id="213" value="&lt;b&gt;&lt;font style=&quot;font-size: 48px&quot;&gt;多&lt;/font&gt;&lt;/b&gt;" style="text;html=1;align=center;verticalAlign=middle;resizable=0;points=[];autosize=1;" parent="1" vertex="1">
                    <mxGeometry x="4640" y="1052.5" width="60" height="30" as="geometry"/>
                </mxCell>
                <mxCell id="215" value="" style="shape=singleArrow;direction=south;whiteSpace=wrap;html=1;" parent="1" vertex="1">
                    <mxGeometry x="4370" y="1065" width="150" height="175" as="geometry"/>
                </mxCell>
                <mxCell id="217" value="" style="endArrow=classic;html=1;" parent="1" source="180" edge="1">
                    <mxGeometry width="50" height="50" relative="1" as="geometry">
                        <mxPoint x="5010" y="910" as="sourcePoint"/>
                        <mxPoint x="4800" y="930" as="targetPoint"/>
                    </mxGeometry>
                </mxCell>
                <mxCell id="218" value="" style="endArrow=classic;html=1;" parent="1" edge="1">
                    <mxGeometry width="50" height="50" relative="1" as="geometry">
                        <mxPoint x="5030" y="563.5" as="sourcePoint"/>
                        <mxPoint x="4800" y="586.5" as="targetPoint"/>
                    </mxGeometry>
                </mxCell>
                <mxCell id="219" value="" style="endArrow=classic;html=1;" parent="1" edge="1">
                    <mxGeometry width="50" height="50" relative="1" as="geometry">
                        <mxPoint x="5030" y="260" as="sourcePoint"/>
                        <mxPoint x="4800" y="560" as="targetPoint"/>
                    </mxGeometry>
                </mxCell>
                <mxCell id="220" value="" style="whiteSpace=wrap;html=1;" parent="1" vertex="1">
                    <mxGeometry x="5030" y="1075" width="240" height="190" as="geometry"/>
                </mxCell>
                <mxCell id="221" value="&lt;b style=&quot;font-size: 24px&quot;&gt;Chat&lt;/b&gt;" style="whiteSpace=wrap;html=1;" parent="1" vertex="1">
                    <mxGeometry x="5070" y="1055" width="160" height="60" as="geometry"/>
                </mxCell>
                <mxCell id="224" value="" style="whiteSpace=wrap;html=1;" parent="1" vertex="1">
                    <mxGeometry x="5040" y="-140" width="240" height="190" as="geometry"/>
                </mxCell>
                <mxCell id="225" value="&lt;font style=&quot;font-size: 24px&quot;&gt;&lt;b&gt;Chat&lt;/b&gt;&lt;/font&gt;" style="whiteSpace=wrap;html=1;" parent="1" vertex="1">
                    <mxGeometry x="5080" y="-160" width="160" height="60" as="geometry"/>
                </mxCell>
                <mxCell id="226" value="" style="endArrow=classic;html=1;exitX=0;exitY=0.5;exitDx=0;exitDy=0;" parent="1" source="224" edge="1">
                    <mxGeometry width="50" height="50" relative="1" as="geometry">
                        <mxPoint x="5040" y="270" as="sourcePoint"/>
                        <mxPoint x="4800" y="270" as="targetPoint"/>
                    </mxGeometry>
                </mxCell>
                <mxCell id="227" value="" style="endArrow=classic;html=1;" parent="1" edge="1">
                    <mxGeometry width="50" height="50" relative="1" as="geometry">
                        <mxPoint x="5020" y="1180" as="sourcePoint"/>
                        <mxPoint x="4810" y="960" as="targetPoint"/>
                    </mxGeometry>
                </mxCell>
                <mxCell id="228" value="" style="endArrow=classic;html=1;" parent="1" edge="1">
                    <mxGeometry width="50" height="50" relative="1" as="geometry">
                        <mxPoint x="5510" y="265" as="sourcePoint"/>
                        <mxPoint x="5280" y="288" as="targetPoint"/>
                    </mxGeometry>
                </mxCell>
                <mxCell id="229" value="" style="endArrow=classic;html=1;" parent="1" edge="1">
                    <mxGeometry width="50" height="50" relative="1" as="geometry">
                        <mxPoint x="5510" y="260" as="sourcePoint"/>
                        <mxPoint x="5290" y="-50" as="targetPoint"/>
                    </mxGeometry>
                </mxCell>
                <mxCell id="230" value="" style="endArrow=classic;html=1;" parent="1" edge="1">
                    <mxGeometry width="50" height="50" relative="1" as="geometry">
                        <mxPoint x="5510" y="563.5" as="sourcePoint"/>
                        <mxPoint x="5280" y="586.5" as="targetPoint"/>
                    </mxGeometry>
                </mxCell>
                <mxCell id="231" value="" style="endArrow=classic;html=1;" parent="1" edge="1">
                    <mxGeometry width="50" height="50" relative="1" as="geometry">
                        <mxPoint x="5510" y="900" as="sourcePoint"/>
                        <mxPoint x="5280" y="923" as="targetPoint"/>
                    </mxGeometry>
                </mxCell>
                <mxCell id="232" value="" style="endArrow=classic;html=1;" parent="1" edge="1">
                    <mxGeometry width="50" height="50" relative="1" as="geometry">
                        <mxPoint x="5510" y="910" as="sourcePoint"/>
                        <mxPoint x="5300" y="1180" as="targetPoint"/>
                    </mxGeometry>
                </mxCell>
                <mxCell id="234" value="&lt;font style=&quot;font-size: 36px&quot;&gt;Roomとチャットは､　Room1　対　Chat多&lt;br&gt;&lt;br&gt;User と Chat は､　User1　対　Chat多&lt;br&gt;&lt;/font&gt;" style="text;html=1;align=center;verticalAlign=middle;resizable=0;points=[];autosize=1;" parent="1" vertex="1">
                    <mxGeometry x="4680" y="1310" width="720" height="70" as="geometry"/>
                </mxCell>
                <mxCell id="235" value="" style="shape=singleArrow;direction=south;whiteSpace=wrap;html=1;" parent="1" vertex="1">
                    <mxGeometry x="5090" y="1460" width="140" height="120" as="geometry"/>
                </mxCell>
            </root>
        </mxGraphModel>
    </diagram>
</mxfile>